<svg xmlns="http://www.w3.org/2000/svg" viewBox="0 0 60 30" role="img" aria-label="Flag of Zimbabwe">
  <rect width="60" height="30" fill="#006400"/>
  <rect width="60" height="4.286" y="4.286" fill="#FFD200"/>
  <rect width="60" height="4.286" y="8.572" fill="#CE1126"/>
  <rect width="60" height="4.286" y="12.858" fill="#000"/>
  <rect width="60" height="4.286" y="17.144" fill="#CE1126"/>
  <rect width="60" height="4.286" y="21.43" fill="#FFD200"/>
  <rect width="60" height="4.286" y="25.714" fill="#006400"/>
  <polygon points="0,0 20,15 0,30" fill="#fff"/>
  <polygon points="6,15 7.4,12.1 10.5,12.1 8,10.2 9.1,7.2 6,8.8 2.9,7.2 4,10.2 1.5,12.1 4.6,12.1" fill="#CE1126"/>
  <path d="M11 11.5c1.2-0.5 2.5-0.2 3.2 0.8 0.3-1.2 1.2-2.1 2.4-2.4-0.8-1-0.6-2.5 0.4-3.3-1.2-0.2-2.1-1.2-2.3-2.4-1 0.7-2.4 0.6-3.3-0.3-0.1 1.3-1.1 2.4-2.4 2.7 0.9 0.9 1 2.3 0.2 3.3z" fill="#FFD200" stroke="#000" stroke-width="0.15"/>
</svg>
